<svg width="127" height="36" viewBox="0 0 127 36" fill="none" xmlns="http://www.w3.org/2000/svg">
<path d="M2.14 34V25.768H6.46C6.988 25.768 7.424 25.868 7.768 26.068C8.112 26.268 8.368 26.54 8.536 26.884C8.712 27.228 8.8 27.62 8.8 28.06C8.8 28.644 8.66 29.14 8.38 29.548C8.108 29.956 7.76 30.236 7.336 30.388L9.088 34H8.236L6.556 30.52H2.908V34H2.14ZM2.908 29.848H6.364C6.884 29.848 7.288 29.688 7.576 29.368C7.872 29.048 8.02 28.608 8.02 28.048C8.02 27.712 7.96 27.428 7.84 27.196C7.72 26.956 7.536 26.772 7.288 26.644C7.04 26.516 6.732 26.452 6.364 26.452H2.908V29.848ZM12.9468 34.144C12.3628 34.144 11.8628 34.028 11.4468 33.796C11.0388 33.556 10.7268 33.192 10.5107 32.704C10.3028 32.216 10.1988 31.596 10.1988 30.844C10.1988 30.084 10.3028 29.464 10.5107 28.984C10.7268 28.496 11.0428 28.136 11.4588 27.904C11.8828 27.664 12.4028 27.544 13.0188 27.544C13.6028 27.544 14.0908 27.66 14.4828 27.892C14.8748 28.124 15.1708 28.456 15.3708 28.888C15.5708 29.32 15.6708 29.84 15.6708 30.448V31.024H10.9308C10.9308 31.632 11.0108 32.124 11.1708 32.5C11.3388 32.868 11.5748 33.136 11.8788 33.304C12.1828 33.464 12.5468 33.544 12.9708 33.544C13.3148 33.544 13.6068 33.5 13.8468 33.412C14.0948 33.316 14.2948 33.192 14.4468 33.04C14.6068 32.888 14.7268 32.712 14.8068 32.512C14.8948 32.312 14.9428 32.108 14.9508 31.9H15.6228C15.6148 32.188 15.5588 32.468 15.4548 32.74C15.3508 33.004 15.1908 33.244 14.9748 33.46C14.7588 33.668 14.4828 33.836 14.1468 33.964C13.8108 34.084 13.4108 34.144 12.9468 34.144ZM10.9308 30.436H14.9508C14.9508 30.012 14.8988 29.656 14.7948 29.368C14.6988 29.072 14.5628 28.836 14.3868 28.66C14.2108 28.476 14.0028 28.344 13.7628 28.264C13.5228 28.184 13.2588 28.144 12.9708 28.144C12.5468 28.144 12.1868 28.228 11.8908 28.396C11.6028 28.556 11.3748 28.804 11.2068 29.14C11.0468 29.476 10.9548 29.908 10.9308 30.436ZM19.0083 34.144C18.6003 34.144 18.2403 34.104 17.9283 34.024C17.6163 33.944 17.3563 33.828 17.1483 33.676C16.9403 33.516 16.7803 33.32 16.6683 33.088C16.5643 32.848 16.5123 32.576 16.5123 32.272C16.5123 32.24 16.5123 32.204 16.5123 32.164C16.5203 32.124 16.5243 32.088 16.5243 32.056H17.2203C17.2123 32.104 17.2083 32.144 17.2083 32.176C17.2083 32.2 17.2083 32.228 17.2083 32.26C17.2083 32.596 17.2843 32.86 17.4363 33.052C17.5963 33.236 17.8163 33.364 18.0963 33.436C18.3763 33.508 18.7003 33.544 19.0683 33.544C19.3883 33.544 19.6723 33.5 19.9203 33.412C20.1683 33.316 20.3643 33.18 20.5083 33.004C20.6603 32.828 20.7363 32.612 20.7363 32.356C20.7363 32.036 20.6403 31.796 20.4483 31.636C20.2643 31.468 20.0243 31.34 19.7283 31.252C19.4323 31.156 19.1243 31.064 18.8043 30.976C18.5563 30.904 18.3083 30.828 18.0603 30.748C17.8123 30.66 17.5883 30.552 17.3883 30.424C17.1963 30.296 17.0403 30.136 16.9203 29.944C16.8003 29.744 16.7403 29.496 16.7403 29.2C16.7403 28.952 16.7923 28.728 16.8963 28.528C17.0003 28.32 17.1483 28.144 17.3403 28C17.5403 27.848 17.7803 27.736 18.0603 27.664C18.3483 27.584 18.6763 27.544 19.0443 27.544C19.4763 27.544 19.8363 27.592 20.1243 27.688C20.4203 27.784 20.6523 27.92 20.8203 28.096C20.9963 28.264 21.1203 28.448 21.1923 28.648C21.2723 28.848 21.3123 29.056 21.3123 29.272C21.3123 29.296 21.3123 29.328 21.3123 29.368C21.3123 29.4 21.3083 29.436 21.3003 29.476H20.6043V29.296C20.6043 29.128 20.5643 28.956 20.4843 28.78C20.4123 28.604 20.2603 28.456 20.0283 28.336C19.8043 28.208 19.4643 28.144 19.0083 28.144C18.7443 28.144 18.5163 28.168 18.3243 28.216C18.1323 28.264 17.9723 28.332 17.8443 28.42C17.7163 28.5 17.6163 28.604 17.5443 28.732C17.4803 28.86 17.4483 29.012 17.4483 29.188C17.4483 29.444 17.5243 29.64 17.6763 29.776C17.8363 29.904 18.0403 30.008 18.2883 30.088C18.5363 30.16 18.8003 30.244 19.0803 30.34C19.3603 30.428 19.6403 30.516 19.9203 30.604C20.2003 30.692 20.4563 30.8 20.6883 30.928C20.9203 31.056 21.1043 31.224 21.2403 31.432C21.3843 31.64 21.4563 31.912 21.4563 32.248C21.4563 32.552 21.3923 32.824 21.2643 33.064C21.1443 33.296 20.9763 33.492 20.7603 33.652C20.5443 33.812 20.2843 33.932 19.9803 34.012C19.6843 34.1 19.3603 34.144 19.0083 34.144ZM25.1694 34.144C24.5854 34.144 24.0854 34.028 23.6694 33.796C23.2614 33.556 22.9494 33.192 22.7334 32.704C22.5254 32.216 22.4214 31.596 22.4214 30.844C22.4214 30.084 22.5254 29.464 22.7334 28.984C22.9494 28.496 23.2654 28.136 23.6814 27.904C24.1054 27.664 24.6254 27.544 25.2414 27.544C25.8254 27.544 26.3134 27.66 26.7054 27.892C27.0974 28.124 27.3934 28.456 27.5934 28.888C27.7934 29.32 27.8934 29.84 27.8934 30.448V31.024H23.1534C23.1534 31.632 23.2334 32.124 23.3934 32.5C23.5614 32.868 23.7974 33.136 24.1014 33.304C24.4054 33.464 24.7694 33.544 25.1934 33.544C25.5374 33.544 25.8294 33.5 26.0694 33.412C26.3174 33.316 26.5174 33.192 26.6694 33.04C26.8294 32.888 26.9494 32.712 27.0294 32.512C27.1174 32.312 27.1654 32.108 27.1734 31.9H27.8454C27.8374 32.188 27.7814 32.468 27.6774 32.74C27.5734 33.004 27.4134 33.244 27.1974 33.46C26.9814 33.668 26.7054 33.836 26.3694 33.964C26.0334 34.084 25.6334 34.144 25.1694 34.144ZM23.1534 30.436H27.1734C27.1734 30.012 27.1214 29.656 27.0174 29.368C26.9214 29.072 26.7854 28.836 26.6094 28.66C26.4334 28.476 26.2254 28.344 25.9854 28.264C25.7454 28.184 25.4814 28.144 25.1934 28.144C24.7694 28.144 24.4094 28.228 24.1134 28.396C23.8254 28.556 23.5974 28.804 23.4294 29.14C23.2694 29.476 23.1774 29.908 23.1534 30.436ZM30.799 34.144C30.527 34.144 30.267 34.112 30.019 34.048C29.779 33.984 29.567 33.884 29.383 33.748C29.199 33.604 29.055 33.424 28.951 33.208C28.847 32.992 28.795 32.728 28.795 32.416C28.795 31.976 28.903 31.62 29.119 31.348C29.343 31.076 29.651 30.868 30.043 30.724C30.435 30.572 30.899 30.468 31.435 30.412C31.971 30.356 32.551 30.328 33.175 30.328V29.44C33.175 29.168 33.123 28.936 33.019 28.744C32.923 28.544 32.747 28.396 32.491 28.3C32.243 28.196 31.895 28.144 31.447 28.144C31.015 28.144 30.675 28.2 30.427 28.312C30.187 28.424 30.015 28.572 29.911 28.756C29.807 28.94 29.755 29.14 29.755 29.356V29.56H29.083C29.075 29.52 29.071 29.48 29.071 29.44C29.071 29.4 29.071 29.352 29.071 29.296C29.071 28.888 29.175 28.556 29.383 28.3C29.599 28.044 29.895 27.856 30.271 27.736C30.655 27.608 31.095 27.544 31.591 27.544C32.079 27.544 32.491 27.616 32.827 27.76C33.163 27.904 33.419 28.108 33.595 28.372C33.779 28.636 33.871 28.956 33.871 29.332V33.136C33.871 33.288 33.895 33.392 33.943 33.448C33.999 33.504 34.079 33.532 34.183 33.532H34.723V33.964C34.587 34.02 34.455 34.06 34.327 34.084C34.207 34.116 34.087 34.132 33.967 34.132C33.751 34.132 33.587 34.084 33.475 33.988C33.371 33.892 33.299 33.764 33.259 33.604C33.219 33.436 33.199 33.252 33.199 33.052H33.115C32.955 33.284 32.751 33.484 32.503 33.652C32.263 33.812 31.995 33.932 31.699 34.012C31.411 34.1 31.111 34.144 30.799 34.144ZM30.895 33.532C31.167 33.532 31.435 33.488 31.699 33.4C31.971 33.312 32.215 33.188 32.431 33.028C32.655 32.86 32.835 32.664 32.971 32.44C33.107 32.208 33.175 31.952 33.175 31.672V30.928C32.351 30.928 31.671 30.972 31.135 31.06C30.599 31.148 30.199 31.3 29.935 31.516C29.679 31.732 29.551 32.032 29.551 32.416C29.551 32.68 29.611 32.896 29.731 33.064C29.851 33.232 30.011 33.352 30.211 33.424C30.419 33.496 30.647 33.532 30.895 33.532ZM35.6492 34V27.688H36.1892L36.2612 28.768H36.3332C36.3812 28.576 36.4572 28.388 36.5612 28.204C36.6732 28.012 36.8292 27.856 37.0292 27.736C37.2292 27.608 37.4772 27.544 37.7732 27.544C37.8932 27.544 37.9972 27.552 38.0852 27.568C38.1732 27.584 38.2372 27.6 38.2772 27.616V28.24H37.9292C37.6412 28.24 37.3932 28.3 37.1852 28.42C36.9852 28.532 36.8212 28.684 36.6932 28.876C36.5732 29.068 36.4852 29.284 36.4292 29.524C36.3732 29.764 36.3452 30.008 36.3452 30.256V34H35.6492ZM41.3962 34.144C40.8362 34.144 40.3562 34.024 39.9562 33.784C39.5642 33.544 39.2642 33.18 39.0562 32.692C38.8482 32.196 38.7442 31.58 38.7442 30.844C38.7442 30.116 38.8442 29.508 39.0442 29.02C39.2522 28.532 39.5562 28.164 39.9562 27.916C40.3642 27.668 40.8642 27.544 41.4562 27.544C41.8962 27.544 42.2682 27.604 42.5722 27.724C42.8762 27.836 43.1202 28.004 43.3042 28.228C43.4882 28.444 43.6202 28.704 43.7002 29.008C43.7882 29.312 43.8322 29.644 43.8322 30.004H43.1362C43.1362 29.564 43.0802 29.208 42.9682 28.936C42.8562 28.664 42.6762 28.468 42.4282 28.348C42.1802 28.22 41.8482 28.156 41.4322 28.156C41.0642 28.156 40.7322 28.236 40.4362 28.396C40.1402 28.548 39.9042 28.808 39.7282 29.176C39.5602 29.544 39.4762 30.044 39.4762 30.676V31.012C39.4762 31.604 39.5522 32.088 39.7042 32.464C39.8642 32.832 40.0882 33.104 40.3762 33.28C40.6722 33.448 41.0202 33.532 41.4202 33.532C41.8522 33.532 42.1922 33.46 42.4402 33.316C42.6962 33.164 42.8762 32.948 42.9802 32.668C43.0922 32.388 43.1482 32.06 43.1482 31.684H43.8322C43.8322 32.004 43.7882 32.312 43.7002 32.608C43.6202 32.896 43.4842 33.156 43.2922 33.388C43.1082 33.62 42.8602 33.804 42.5482 33.94C42.2442 34.076 41.8602 34.144 41.3962 34.144ZM45.1062 34V25.324H45.8022V28.528H45.8862C46.0702 28.28 46.2702 28.088 46.4862 27.952C46.7022 27.808 46.9342 27.704 47.1822 27.64C47.4302 27.576 47.6982 27.544 47.9862 27.544C48.3862 27.544 48.7342 27.608 49.0302 27.736C49.3342 27.864 49.5662 28.076 49.7262 28.372C49.8942 28.66 49.9782 29.052 49.9782 29.548V34H49.2822V29.584C49.2822 29.296 49.2422 29.06 49.1622 28.876C49.0902 28.684 48.9862 28.54 48.8502 28.444C48.7142 28.34 48.5542 28.268 48.3702 28.228C48.1942 28.188 47.9982 28.168 47.7822 28.168C47.4542 28.168 47.1342 28.244 46.8222 28.396C46.5182 28.548 46.2702 28.776 46.0782 29.08C45.8942 29.384 45.8022 29.776 45.8022 30.256V34H45.1062ZM57.9311 34.144C57.0911 34.144 56.3831 33.988 55.8071 33.676C55.2311 33.356 54.7951 32.88 54.4991 32.248C54.2031 31.616 54.0551 30.828 54.0551 29.884C54.0551 28.468 54.3951 27.404 55.0751 26.692C55.7631 25.98 56.7191 25.624 57.9431 25.624C58.6711 25.624 59.3031 25.736 59.8391 25.96C60.3831 26.184 60.8031 26.524 61.0991 26.98C61.4031 27.428 61.5551 27.996 61.5551 28.684H60.7751C60.7751 28.132 60.6591 27.68 60.4271 27.328C60.2031 26.976 59.8791 26.716 59.4551 26.548C59.0311 26.38 58.5231 26.296 57.9311 26.296C57.3231 26.296 56.7871 26.416 56.3231 26.656C55.8591 26.888 55.4991 27.264 55.2431 27.784C54.9951 28.296 54.8711 28.972 54.8711 29.812V30.064C54.8711 30.88 54.9951 31.536 55.2431 32.032C55.4991 32.528 55.8591 32.892 56.3231 33.124C56.7871 33.356 57.3271 33.472 57.9431 33.472C58.5271 33.472 59.0311 33.388 59.4551 33.22C59.8871 33.052 60.2191 32.796 60.4511 32.452C60.6831 32.1 60.7991 31.648 60.7991 31.096H61.5551C61.5551 31.792 61.3991 32.368 61.0871 32.824C60.7751 33.272 60.3431 33.604 59.7911 33.82C59.2471 34.036 58.6271 34.144 57.9311 34.144ZM63.0593 34V25.324H63.7553V34H63.0593ZM67.4051 34.144C66.8051 34.144 66.3211 33.996 65.9531 33.7C65.5931 33.404 65.4131 32.884 65.4131 32.14V27.688H66.1091V32.104C66.1091 32.392 66.1451 32.632 66.2171 32.824C66.2971 33.008 66.4051 33.152 66.5411 33.256C66.6771 33.352 66.8331 33.42 67.0091 33.46C67.1931 33.5 67.3931 33.52 67.6091 33.52C67.9371 33.52 68.2531 33.44 68.5571 33.28C68.8611 33.12 69.1091 32.884 69.3011 32.572C69.4931 32.252 69.5891 31.872 69.5891 31.432V27.688H70.2851V34H69.7571L69.6851 32.968H69.6011C69.4171 33.272 69.2091 33.512 68.9771 33.688C68.7531 33.856 68.5051 33.972 68.2331 34.036C67.9691 34.108 67.6931 34.144 67.4051 34.144ZM74.7004 34.144C74.2684 34.144 73.8844 34.056 73.5484 33.88C73.2204 33.704 72.9404 33.428 72.7084 33.052H72.6244L72.5404 34H72.0124V25.324H72.7084V28.54H72.7924C72.9364 28.292 73.1124 28.096 73.3204 27.952C73.5284 27.808 73.7524 27.704 73.9924 27.64C74.2324 27.576 74.4724 27.544 74.7124 27.544C75.2324 27.544 75.6764 27.66 76.0444 27.892C76.4124 28.124 76.6964 28.476 76.8964 28.948C77.1044 29.42 77.2084 30.028 77.2084 30.772C77.2084 31.564 77.1084 32.208 76.9084 32.704C76.7084 33.2 76.4244 33.564 76.0564 33.796C75.6884 34.028 75.2364 34.144 74.7004 34.144ZM74.6404 33.532C74.9924 33.532 75.3044 33.456 75.5764 33.304C75.8564 33.144 76.0724 32.88 76.2244 32.512C76.3844 32.144 76.4644 31.644 76.4644 31.012V30.676C76.4644 30.076 76.3924 29.592 76.2484 29.224C76.1044 28.856 75.8924 28.588 75.6124 28.42C75.3324 28.244 74.9844 28.156 74.5684 28.156C74.3604 28.156 74.1484 28.188 73.9324 28.252C73.7164 28.316 73.5164 28.44 73.3324 28.624C73.1484 28.8 72.9964 29.056 72.8764 29.392C72.7644 29.728 72.7084 30.172 72.7084 30.724V30.952C72.7084 31.504 72.7724 31.972 72.9004 32.356C73.0364 32.74 73.2484 33.032 73.5364 33.232C73.8244 33.432 74.1924 33.532 74.6404 33.532Z" fill="#23232E"/>
<path d="M2.025 22V4.85H11.125C12.075 4.85 12.9083 5.025 13.625 5.375C14.3417 5.70833 14.9 6.19167 15.3 6.825C15.7167 7.45833 15.925 8.2 15.925 9.05C15.925 9.7 15.8 10.2917 15.55 10.825C15.3167 11.3583 14.9833 11.8083 14.55 12.175C14.1333 12.5417 13.6583 12.8167 13.125 13V13.1C13.7417 13.2333 14.2917 13.4833 14.775 13.85C15.275 14.2 15.6667 14.6667 15.95 15.25C16.25 15.8167 16.4 16.5 16.4 17.3C16.4 18.3833 16.1583 19.275 15.675 19.975C15.2083 20.675 14.5833 21.1917 13.8 21.525C13.0167 21.8417 12.125 22 11.125 22H2.025ZM4.825 19.6H10.9C11.6667 19.6 12.2917 19.4 12.775 19C13.275 18.5833 13.525 17.9167 13.525 17C13.525 16.45 13.4167 15.9833 13.2 15.6C13 15.2 12.6917 14.9 12.275 14.7C11.8583 14.4833 11.3333 14.375 10.7 14.375H4.825V19.6ZM4.825 12.025H10.475C11.0083 12.025 11.4667 11.925 11.85 11.725C12.2333 11.525 12.525 11.2417 12.725 10.875C12.9417 10.5083 13.05 10.1 13.05 9.65C13.05 8.83333 12.825 8.23333 12.375 7.85C11.9417 7.45 11.3667 7.25 10.65 7.25H4.825V12.025ZM19.2287 6.575V3.925H21.8287V6.575H19.2287ZM19.2287 22V8.85H21.8287V22H19.2287ZM30.7857 22.3C29.4191 22.3 28.2607 22.0583 27.3107 21.575C26.3774 21.075 25.6691 20.3167 25.1857 19.3C24.7191 18.2833 24.4857 16.9917 24.4857 15.425C24.4857 13.8417 24.7191 12.55 25.1857 11.55C25.6691 10.5333 26.3774 9.78333 27.3107 9.3C28.2607 8.8 29.4191 8.55 30.7857 8.55C32.1857 8.55 33.3524 8.8 34.2857 9.3C35.2191 9.78333 35.9191 10.5333 36.3857 11.55C36.8691 12.55 37.1107 13.8417 37.1107 15.425C37.1107 16.9917 36.8691 18.2833 36.3857 19.3C35.9191 20.3167 35.2191 21.075 34.2857 21.575C33.3524 22.0583 32.1857 22.3 30.7857 22.3ZM30.7857 20.15C31.6191 20.15 32.3024 19.9917 32.8357 19.675C33.3691 19.3417 33.7607 18.8417 34.0107 18.175C34.2774 17.5083 34.4107 16.6667 34.4107 15.65V15.2C34.4107 14.1833 34.2774 13.3417 34.0107 12.675C33.7607 12.0083 33.3691 11.5167 32.8357 11.2C32.3024 10.8667 31.6191 10.7 30.7857 10.7C29.9691 10.7 29.2941 10.8667 28.7607 11.2C28.2274 11.5167 27.8274 12.0083 27.5607 12.675C27.3107 13.3417 27.1857 14.1833 27.1857 15.2V15.65C27.1857 16.6667 27.3107 17.5083 27.5607 18.175C27.8274 18.8417 28.2274 19.3417 28.7607 19.675C29.2941 19.9917 29.9691 20.15 30.7857 20.15ZM39.7609 22V8.85H41.9109L42.1359 10.725H42.3109C42.6109 10.2417 42.9526 9.84167 43.3359 9.525C43.7359 9.20833 44.1776 8.96667 44.6609 8.8C45.1609 8.63333 45.6943 8.55 46.2609 8.55C47.0776 8.55 47.7859 8.71667 48.3859 9.05C49.0026 9.38333 49.4693 9.94167 49.7859 10.725H49.9609C50.2609 10.2583 50.6109 9.86667 51.0109 9.55C51.4109 9.21667 51.8609 8.96667 52.3609 8.8C52.8776 8.63333 53.4276 8.55 54.0109 8.55C54.7943 8.55 55.4859 8.69167 56.0859 8.975C56.6859 9.24167 57.1609 9.7 57.5109 10.35C57.8609 10.9833 58.0359 11.8333 58.0359 12.9V22H55.4359V13.375C55.4359 12.875 55.3776 12.4667 55.2609 12.15C55.1443 11.8167 54.9859 11.5583 54.7859 11.375C54.5859 11.175 54.3443 11.0333 54.0609 10.95C53.7776 10.8667 53.4693 10.825 53.1359 10.825C52.5859 10.825 52.0943 10.975 51.6609 11.275C51.2276 11.5583 50.8776 11.9583 50.6109 12.475C50.3443 12.9917 50.2109 13.6 50.2109 14.3V22H47.6109V13.375C47.6109 12.875 47.5526 12.4667 47.4359 12.15C47.3193 11.8167 47.1609 11.5583 46.9609 11.375C46.7609 11.175 46.5193 11.0333 46.2359 10.95C45.9526 10.8667 45.6526 10.825 45.3359 10.825C44.7859 10.825 44.2859 10.975 43.8359 11.275C43.3859 11.5583 43.0276 11.9583 42.7609 12.475C42.4943 12.9917 42.3609 13.6 42.3609 14.3V22H39.7609ZM66.7197 22.3C65.3697 22.3 64.2364 22.0583 63.3197 21.575C62.4197 21.075 61.7364 20.3167 61.2697 19.3C60.8031 18.2833 60.5697 16.9917 60.5697 15.425C60.5697 13.8417 60.8031 12.55 61.2697 11.55C61.7364 10.5333 62.4281 9.78333 63.3447 9.3C64.2614 8.8 65.4031 8.55 66.7697 8.55C68.0197 8.55 69.0614 8.79167 69.8947 9.275C70.7447 9.74167 71.3864 10.4583 71.8197 11.425C72.2531 12.3917 72.4697 13.6083 72.4697 15.075V16.075H63.2447C63.2781 17.0083 63.4197 17.7917 63.6697 18.425C63.9197 19.0417 64.2947 19.5 64.7947 19.8C65.3114 20.0833 65.9614 20.225 66.7447 20.225C67.2281 20.225 67.6614 20.1667 68.0447 20.05C68.4281 19.9167 68.7531 19.7333 69.0197 19.5C69.2864 19.25 69.4947 18.9583 69.6447 18.625C69.7947 18.275 69.8697 17.8833 69.8697 17.45H72.4197C72.4197 18.2333 72.2864 18.925 72.0197 19.525C71.7531 20.125 71.3614 20.6333 70.8447 21.05C70.3447 21.45 69.7447 21.7583 69.0447 21.975C68.3447 22.1917 67.5697 22.3 66.7197 22.3ZM63.2947 14.175H69.7447C69.7447 13.525 69.6697 12.9833 69.5197 12.55C69.3864 12.1 69.1864 11.7333 68.9197 11.45C68.6531 11.1667 68.3364 10.9667 67.9697 10.85C67.6031 10.7167 67.1864 10.65 66.7197 10.65C66.0197 10.65 65.4197 10.775 64.9197 11.025C64.4364 11.275 64.0614 11.6667 63.7947 12.2C63.5281 12.7167 63.3614 13.375 63.2947 14.175ZM79.6375 22.3C78.5708 22.3 77.6458 22.0583 76.8625 21.575C76.0792 21.0917 75.4708 20.3417 75.0375 19.325C74.6208 18.3083 74.4125 16.9917 74.4125 15.375C74.4125 13.7917 74.6292 12.5 75.0625 11.5C75.4958 10.5 76.0958 9.75833 76.8625 9.275C77.6292 8.79167 78.5125 8.55 79.5125 8.55C80.0958 8.55 80.6375 8.61667 81.1375 8.75C81.6375 8.88333 82.0792 9.09167 82.4625 9.375C82.8625 9.65833 83.1958 10.0167 83.4625 10.45H83.6375V3.925H86.2375V22H84.1125L83.8625 20.2H83.6875C83.2542 20.9 82.6792 21.425 81.9625 21.775C81.2625 22.125 80.4875 22.3 79.6375 22.3ZM80.3625 20.05C81.1292 20.05 81.7458 19.8833 82.2125 19.55C82.6958 19.2 83.0542 18.7 83.2875 18.05C83.5208 17.3833 83.6375 16.575 83.6375 15.625V15.275C83.6375 14.475 83.5625 13.7917 83.4125 13.225C83.2625 12.6583 83.0458 12.2 82.7625 11.85C82.4792 11.4833 82.1375 11.2167 81.7375 11.05C81.3375 10.8833 80.8875 10.8 80.3875 10.8C79.6208 10.8 78.9958 10.9583 78.5125 11.275C78.0292 11.575 77.6708 12.05 77.4375 12.7C77.2208 13.35 77.1125 14.1917 77.1125 15.225V15.675C77.1125 16.7083 77.2292 17.55 77.4625 18.2C77.6958 18.8333 78.0458 19.3 78.5125 19.6C78.9958 19.9 79.6125 20.05 80.3625 20.05ZM89.59 6.575V3.925H92.19V6.575H89.59ZM89.59 22V8.85H92.19V22H89.59ZM100.772 22.3C99.4554 22.3 98.3554 22.0583 97.4721 21.575C96.5887 21.075 95.9221 20.3167 95.4721 19.3C95.0387 18.2833 94.8221 16.9917 94.8221 15.425C94.8221 13.8583 95.0471 12.575 95.4971 11.575C95.9471 10.5583 96.6137 9.8 97.4971 9.3C98.3971 8.8 99.4971 8.55 100.797 8.55C101.697 8.55 102.48 8.66667 103.147 8.9C103.814 9.11667 104.38 9.45 104.847 9.9C105.314 10.3333 105.655 10.875 105.872 11.525C106.105 12.175 106.222 12.9167 106.222 13.75H103.597C103.597 13.05 103.497 12.475 103.297 12.025C103.097 11.575 102.789 11.2417 102.372 11.025C101.955 10.7917 101.414 10.675 100.747 10.675C100.047 10.675 99.4554 10.8417 98.9721 11.175C98.4887 11.4917 98.1221 11.9833 97.8721 12.65C97.6221 13.3 97.4971 14.1583 97.4971 15.225V15.65C97.4971 16.6667 97.6137 17.5167 97.8471 18.2C98.0971 18.8667 98.4637 19.3667 98.9471 19.7C99.4471 20.0167 100.08 20.175 100.847 20.175C101.514 20.175 102.047 20.0583 102.447 19.825C102.864 19.575 103.172 19.225 103.372 18.775C103.589 18.3083 103.697 17.75 103.697 17.1H106.222C106.222 17.8833 106.105 18.5917 105.872 19.225C105.655 19.8583 105.314 20.4083 104.847 20.875C104.397 21.325 103.83 21.675 103.147 21.925C102.464 22.175 101.672 22.3 100.772 22.3ZM112.178 22.3C111.761 22.3 111.311 22.25 110.828 22.15C110.344 22.05 109.886 21.8667 109.453 21.6C109.036 21.3333 108.694 20.9667 108.428 20.5C108.161 20.0167 108.028 19.3917 108.028 18.625C108.028 17.725 108.236 16.9833 108.653 16.4C109.069 15.8167 109.653 15.3583 110.403 15.025C111.153 14.6917 112.044 14.4583 113.078 14.325C114.128 14.1917 115.269 14.125 116.503 14.125V12.825C116.503 12.3917 116.428 12.0083 116.278 11.675C116.144 11.3417 115.886 11.0833 115.503 10.9C115.136 10.7167 114.603 10.625 113.903 10.625C113.203 10.625 112.653 10.7167 112.253 10.9C111.869 11.0667 111.594 11.2833 111.428 11.55C111.278 11.8 111.203 12.075 111.203 12.375V12.75H108.703C108.686 12.6667 108.678 12.5833 108.678 12.5C108.678 12.4167 108.678 12.3167 108.678 12.2C108.678 11.4167 108.894 10.7583 109.328 10.225C109.778 9.675 110.403 9.25833 111.203 8.975C112.003 8.69167 112.928 8.55 113.978 8.55C115.111 8.55 116.053 8.71667 116.803 9.05C117.569 9.36667 118.144 9.825 118.528 10.425C118.911 11.025 119.103 11.75 119.103 12.6V19.275C119.103 19.5917 119.178 19.8167 119.328 19.95C119.494 20.0833 119.686 20.15 119.903 20.15H120.803V21.9C120.603 21.9833 120.353 22.0667 120.053 22.15C119.753 22.2333 119.403 22.275 119.003 22.275C118.553 22.275 118.169 22.1917 117.853 22.025C117.553 21.875 117.303 21.6583 117.103 21.375C116.919 21.075 116.794 20.7417 116.728 20.375H116.578C116.278 20.7583 115.911 21.1 115.478 21.4C115.061 21.6833 114.578 21.9 114.028 22.05C113.478 22.2167 112.861 22.3 112.178 22.3ZM112.903 20.15C113.419 20.15 113.894 20.075 114.328 19.925C114.778 19.7583 115.161 19.5333 115.478 19.25C115.794 18.95 116.044 18.6 116.228 18.2C116.411 17.7833 116.503 17.3333 116.503 16.85V15.975C115.353 15.975 114.344 16.0417 113.478 16.175C112.611 16.3083 111.936 16.5583 111.453 16.925C110.969 17.275 110.728 17.7667 110.728 18.4C110.728 18.7833 110.811 19.1083 110.978 19.375C111.144 19.625 111.394 19.8167 111.728 19.95C112.061 20.0833 112.453 20.15 112.903 20.15ZM122.598 22V3.925H125.198V22H122.598Z" fill="#23232E"/>
</svg>
